<svg width="28" height="28" viewBox="0 0 28 28" fill="none" xmlns="http://www.w3.org/2000/svg">
<mask id="path-1-outside-1_761:3036" maskUnits="userSpaceOnUse" x="0" y="4" width="28" height="19" fill="black">
<rect fill="white" y="4" width="28" height="19"/>
<path fill-rule="evenodd" clip-rule="evenodd" d="M26.9251 5.65309C26.5241 6.07799 25.0351 7.60646 19.4471 13.2571L26.9871 20.6693H27.0001V5.65309H26.9251ZM8.2962 5C3.9462 5 2.3142 5.00393 1.7432 5.00885L11.3722 14.7029C12.0742 15.4111 13.0072 15.8006 13.9992 15.8006C14.9912 15.8006 15.9252 15.4111 16.6272 14.7029L26.2522 5.0118C24.4682 5.00984 15.0022 5 8.2962 5ZM8.552 13.3214C2.964 7.66981 1.476 6.14134 1.075 5.71742H1V20.7336H1.013L8.552 13.3214ZM26.3509 21.4872L18.8189 14.0829L17.2719 15.6409C16.3989 16.5212 15.2369 17.0051 13.9999 17.0051H13.9989C12.7629 17.0061 11.6009 16.5212 10.7269 15.6409L9.1809 14.0829L1.6489 21.4872V21.499V21.5H26.3509V21.499V21.4872Z"/>
</mask>
<path d="M26.9251 5.65309V4.65309C26.6498 4.65309 26.3868 4.76655 26.1978 4.96674L26.9251 5.65309ZM19.4471 13.2571L18.7361 12.5539C18.5492 12.7429 18.4452 12.9984 18.4471 13.2641C18.449 13.5299 18.5566 13.7839 18.7461 13.9702L19.4471 13.2571ZM26.9871 20.6693L26.2861 21.3824C26.4731 21.5663 26.7248 21.6693 26.9871 21.6693V20.6693ZM27.0001 20.6693V21.6693C27.5524 21.6693 28.0001 21.2216 28.0001 20.6693H27.0001ZM27.0001 5.65309H28.0001C28.0001 5.10081 27.5524 4.65309 27.0001 4.65309V5.65309ZM1.7432 5.00885L1.73459 4.00889C1.33232 4.01235 0.971292 4.25653 0.81832 4.62859C0.665348 5.00066 0.750219 5.42816 1.03372 5.71357L1.7432 5.00885ZM11.3722 14.7029L12.0824 13.9989L12.0817 13.9982L11.3722 14.7029ZM16.6272 14.7029L15.9177 13.9982L15.917 13.9989L16.6272 14.7029ZM26.2522 5.0118L26.9617 5.71648C27.2462 5.43009 27.3305 5.00078 27.1756 4.62805C27.0207 4.25531 26.6569 4.01225 26.2533 4.0118L26.2522 5.0118ZM8.552 13.3214L9.25308 14.0345C9.44255 13.8482 9.5501 13.5942 9.55198 13.3285C9.55385 13.0628 9.44991 12.8073 9.2631 12.6183L8.552 13.3214ZM1.075 5.71742L1.80147 5.03022C1.61259 4.83055 1.34986 4.71742 1.075 4.71742V5.71742ZM1 5.71742V4.71742C0.447715 4.71742 0 5.16513 0 5.71742H1ZM1 20.7336H0C0 21.2859 0.447715 21.7336 1 21.7336L1 20.7336ZM1.013 20.7336V21.7336C1.27528 21.7336 1.52706 21.6306 1.71408 21.4467L1.013 20.7336ZM26.3509 21.4872H27.3509C27.3509 21.219 27.2432 20.9621 27.0519 20.7741L26.3509 21.4872ZM18.8189 14.0829L19.5199 13.3698C19.1275 12.984 18.4971 12.9878 18.1093 13.3783L18.8189 14.0829ZM17.2719 15.6409L16.5623 14.9363L16.5619 14.9367L17.2719 15.6409ZM13.9989 17.0051V16.0051H13.9981L13.9989 17.0051ZM10.7269 15.6409L10.0171 16.3452L10.0173 16.3454L10.7269 15.6409ZM9.1809 14.0829L9.89073 13.3785C9.50301 12.9878 8.87241 12.9839 8.47986 13.3698L9.1809 14.0829ZM1.6489 21.4872L0.947863 20.7741C0.756617 20.9621 0.6489 21.219 0.6489 21.4872H1.6489ZM1.6489 21.5H0.6489C0.6489 22.0523 1.09662 22.5 1.6489 22.5V21.5ZM26.3509 21.5V22.5C26.9032 22.5 27.3509 22.0523 27.3509 21.5H26.3509ZM26.1978 4.96674C25.807 5.38084 24.3288 6.89849 18.7361 12.5539L20.1581 13.9602C25.7414 8.31444 27.2412 6.77515 27.6524 6.33945L26.1978 4.96674ZM18.7461 13.9702L26.2861 21.3824L27.6881 19.9562L20.1481 12.544L18.7461 13.9702ZM26.9871 21.6693H27.0001V19.6693H26.9871V21.6693ZM28.0001 20.6693V5.65309H26.0001V20.6693H28.0001ZM27.0001 4.65309H26.9251V6.65309H27.0001V4.65309ZM8.2962 4C3.94815 4 2.31095 4.00393 1.73459 4.00889L1.75181 6.00882C2.31745 6.00394 3.94425 6 8.2962 6V4ZM1.03372 5.71357L10.6627 15.4077L12.0817 13.9982L2.45268 4.30413L1.03372 5.71357ZM10.662 15.4069C11.551 16.3037 12.7393 16.8006 13.9992 16.8006V14.8006C13.2751 14.8006 12.5974 14.5185 12.0824 13.9989L10.662 15.4069ZM13.9992 16.8006C15.2588 16.8006 16.4482 16.3039 17.3374 15.4069L15.917 13.9989C15.4022 14.5183 14.7236 14.8006 13.9992 14.8006V16.8006ZM17.3367 15.4076L26.9617 5.71648L25.5427 4.30712L15.9177 13.9982L17.3367 15.4076ZM26.2533 4.0118C24.4693 4.00984 15.0028 4 8.2962 4V6C15.0016 6 24.4671 6.00984 26.2511 6.0118L26.2533 4.0118ZM9.2631 12.6183C3.67092 6.96249 2.19287 5.44399 1.80147 5.03022L0.348528 6.40461C0.759126 6.83868 2.25708 8.37712 7.8409 14.0245L9.2631 12.6183ZM1.075 4.71742H1V6.71742H1.075V4.71742ZM0 5.71742V20.7336H2V5.71742H0ZM1 21.7336H1.013V19.7336H1V21.7336ZM1.71408 21.4467L9.25308 14.0345L7.85092 12.6083L0.311916 20.0205L1.71408 21.4467ZM27.0519 20.7741L19.5199 13.3698L18.1179 14.796L25.6499 22.2003L27.0519 20.7741ZM18.1093 13.3783L16.5623 14.9363L17.9815 16.3455L19.5285 14.7875L18.1093 13.3783ZM16.5619 14.9367C15.8765 15.6278 14.97 16.0051 13.9999 16.0051V18.0051C15.5037 18.0051 16.9213 17.4145 17.9819 16.345L16.5619 14.9367ZM13.9999 16.0051H13.9989V18.0051H13.9999V16.0051ZM13.9981 16.0051C13.0303 16.0058 12.1236 15.6283 11.4365 14.9363L10.0173 16.3454C11.0782 17.414 12.4955 18.0063 13.9997 18.0051L13.9981 16.0051ZM11.4367 14.9365L9.89073 13.3785L8.47107 14.7873L10.0171 16.3452L11.4367 14.9365ZM8.47986 13.3698L0.947863 20.7741L2.34994 22.2003L9.88194 14.796L8.47986 13.3698ZM0.6489 21.4872V21.499H2.6489V21.4872H0.6489ZM0.6489 21.499V21.5H2.6489V21.499H0.6489ZM1.6489 22.5H26.3509V20.5H1.6489V22.5ZM27.3509 21.5V21.499H25.3509V21.5H27.3509ZM27.3509 21.499V21.4872H25.3509V21.499H27.3509Z" fill="#C4C4C4" mask="url(#path-1-outside-1_761:3036)"/>
</svg>
