<svg width="28" height="29" viewBox="0 0 28 29" fill="none" xmlns="http://www.w3.org/2000/svg">
<path fill-rule="evenodd" clip-rule="evenodd" d="M14 0.5C13.4256 0.5 12.9608 0.964787 12.9608 1.53923V1.71679C12.9608 2.21336 12.6125 2.65634 12.1209 2.73671C11.8848 2.77284 11.6493 2.81957 11.4156 2.87066C10.9334 2.98219 10.4468 2.70992 10.2568 2.25261L10.1889 2.09186C9.96956 1.56103 9.36397 1.30808 8.83314 1.52926C8.30231 1.74857 8.04936 2.35479 8.27116 2.88499L8.33907 3.05321C8.53159 3.50803 8.37832 4.0507 7.95715 4.31113C7.75279 4.4376 7.5528 4.57156 7.3609 4.71049C6.95655 4.99772 6.39955 4.93167 6.04878 4.58153L5.9248 4.45505C5.51858 4.0507 4.86127 4.0507 4.45505 4.45505C4.0507 4.86127 4.0507 5.51858 4.45505 5.9248L4.58153 6.04878C4.93167 6.39955 4.99772 6.95655 4.71049 7.3609C4.57156 7.5528 4.4376 7.75279 4.31113 7.95715C4.0507 8.37832 3.50803 8.53159 3.05072 8.34156L2.88499 8.27365C2.35665 8.05434 1.74608 8.3048 1.52677 8.83563C1.30808 9.36397 1.55854 9.97206 2.08937 10.1914L2.25261 10.2568C2.70743 10.4468 2.98219 10.9334 2.87066 11.4156C2.81957 11.6493 2.77284 11.8848 2.73422 12.1209C2.65634 12.6106 2.21336 12.9608 1.71679 12.9608H1.53923C0.964787 12.9608 0.5 13.4256 0.5 14C0.5 14.5744 0.964787 15.0392 1.53923 15.0392H1.71679C2.21336 15.0392 2.65634 15.3875 2.73671 15.8791C2.77284 16.1152 2.81957 16.3507 2.87066 16.5844C2.98219 17.0666 2.70992 17.5532 2.25261 17.7432L2.09186 17.8111C1.56103 18.0304 1.30808 18.636 1.52926 19.1669C1.74857 19.6977 2.35479 19.9506 2.88499 19.7288L3.05321 19.6609C3.51052 19.4709 4.0507 19.6242 4.31362 20.0429C4.4401 20.2472 4.57156 20.4472 4.71049 20.6416C5.00021 21.0459 4.93417 21.6029 4.58402 21.9512L4.45505 22.0777C4.0507 22.4839 4.0507 23.1412 4.45505 23.545C4.86127 23.9518 5.51858 23.9518 5.9248 23.545L6.05127 23.421C6.40204 23.0708 6.95655 23.0023 7.3609 23.292C7.55529 23.4309 7.75528 23.5649 7.95715 23.6914C8.37832 23.9518 8.53408 24.4945 8.34406 24.9518L8.27365 25.115C8.05434 25.6452 8.3073 26.2539 8.83563 26.4751C9.36584 26.6944 9.97206 26.4439 10.1939 25.9131L10.2593 25.7499C10.4493 25.2951 10.9359 25.0203 11.4175 25.1293C11.6511 25.1829 11.8848 25.229 12.1234 25.2683C12.6106 25.3437 12.9608 25.7866 12.9608 26.2832V26.4608C12.9608 27.0352 13.4256 27.5 14 27.5C14.5744 27.5 15.0392 27.0352 15.0392 26.4608V26.2832C15.0392 25.7866 15.3875 25.3437 15.8791 25.2633C16.1152 25.2272 16.3507 25.1804 16.5844 25.1293C17.0666 25.0178 17.5532 25.2901 17.7432 25.7474L17.8111 25.9081C18.0304 26.439 18.636 26.6919 19.1669 26.4707C19.6977 26.2514 19.9506 25.6452 19.7288 25.115L19.6609 24.9468C19.4709 24.4895 19.6242 23.9493 20.0429 23.6864C20.2472 23.5599 20.4472 23.4284 20.6416 23.2895C21.0459 22.9998 21.6029 23.0658 21.9512 23.416L22.0777 23.545C22.4839 23.9493 23.1412 23.9493 23.545 23.545C23.9518 23.1387 23.9518 22.4814 23.545 22.0752L23.421 21.9487C23.0708 21.598 23.0023 21.0435 23.292 20.6391C23.4309 20.4447 23.5649 20.2447 23.6914 20.0404C23.9518 19.6217 24.4945 19.4659 24.9518 19.6559L25.115 19.7263C25.6452 19.9457 26.2539 19.6927 26.4751 19.1644C26.6944 18.6342 26.4439 18.0279 25.9131 17.8061L25.7499 17.7407C25.2951 17.5507 25.0203 17.0641 25.1293 16.5825C25.1829 16.3489 25.229 16.1152 25.2683 15.8766C25.3437 15.3894 25.7866 15.0392 26.2832 15.0392H26.4608C27.0352 15.0392 27.5 14.5744 27.5 14C27.5 13.4256 27.0352 12.9608 26.4608 12.9608H26.2832C25.7866 12.9608 25.3437 12.6125 25.2633 12.1209C25.2272 11.8848 25.1804 11.6493 25.1293 11.4156C25.0178 10.9334 25.2901 10.4468 25.7474 10.2568L25.9081 10.1889C26.439 9.96956 26.6919 9.36397 26.4707 8.83314C26.2514 8.30231 25.6452 8.04936 25.115 8.27116L24.9468 8.33907C24.4895 8.5291 23.9493 8.37583 23.6864 7.95715C23.5599 7.75279 23.4284 7.5528 23.2895 7.35841C22.9998 6.95406 23.0658 6.39706 23.416 6.04878L23.545 5.9223C23.9493 5.51608 23.9493 4.85878 23.545 4.45256C23.1387 4.0482 22.4814 4.0482 22.0752 4.45256L21.9512 4.58153C21.6004 4.93167 21.0435 5.00021 20.6391 4.71049C20.4447 4.57156 20.2447 4.4376 20.0404 4.31113C19.6217 4.0507 19.4684 3.50803 19.6584 3.05072L19.7263 2.88499C19.9457 2.35665 19.6952 1.74608 19.1644 1.52677C18.636 1.30808 18.0279 1.55854 17.8086 2.08937L17.7407 2.25261C17.5507 2.70743 17.0641 2.98219 16.5825 2.87066C16.3489 2.81957 16.1152 2.77284 15.8766 2.73422C15.3875 2.65634 15.0392 2.21336 15.0392 1.71679V1.53923C15.0392 0.964787 14.5744 0.5 14 0.5ZM14 5.69365C18.2348 5.69365 21.7244 8.86492 22.2359 12.9608H15.7962C15.4261 12.3184 14.7402 11.924 14 11.924H13.9975L10.7776 6.34099C11.7683 5.9248 12.8561 5.69365 14 5.69365ZM8.98392 7.38769L12.2038 12.9608C12.0212 13.2773 11.924 13.6349 11.924 14C11.924 14.3626 12.0212 14.7202 12.2038 15.0342L8.98142 20.6098C6.98583 19.0915 5.69365 16.699 5.69365 14C5.69365 11.2985 6.98832 8.90604 8.98392 7.38769ZM15.7962 15.0392H22.2359C21.7244 19.1351 18.2348 22.3064 14 22.3064C12.8561 22.3064 11.7683 22.0752 10.7776 21.659L13.9975 16.076H14C14.742 16.076 15.4261 15.6791 15.7962 15.0392Z" fill="#A3A3A3"/>
</svg>
