<svg width="28" height="28" viewBox="0 0 28 28" fill="none" xmlns="http://www.w3.org/2000/svg">
<path fill-rule="evenodd" clip-rule="evenodd" d="M10.6369 3.92969H17.3639C17.8253 3.92969 18.4306 4.22991 18.7146 4.60011L20.5631 7.32575C20.7437 7.59099 21.044 7.75208 21.3645 7.75208H25.3399C26.2674 7.75208 27.0176 8.50875 27.0176 9.44686V22.7632C27.0176 23.6997 26.2674 24.4588 25.3399 24.4588H2.66098C1.73346 24.4588 0.982483 23.7013 0.982483 22.7632V9.44686C0.982483 8.51038 1.73346 7.75208 2.66098 7.75208H6.65261C6.9626 7.75208 7.25307 7.59749 7.42881 7.34039L9.28549 4.60011C9.57026 4.23073 10.178 3.92969 10.6369 3.92969ZM20.2995 9.87389C20.2995 10.3425 20.6754 10.7225 21.1392 10.7225C21.6037 10.7225 21.9788 10.3425 21.9788 9.87389C21.9788 9.40525 21.6037 9.02447 21.1392 9.02447C20.6754 9.02447 20.2995 9.40525 20.2995 9.87389ZM7.81489 15.7018C7.81489 19.155 10.5841 21.9541 14.0005 21.9541C17.4168 21.9541 20.1852 19.155 20.1852 15.7018C20.1852 12.2478 17.4168 9.44945 14.0005 9.44945C10.5841 9.44945 7.81489 12.2478 7.81489 15.7018ZM3.50146 4.7789H5.1824C5.64616 4.7789 6.02124 5.15642 6.02124 5.62832V6.47693H2.6618V5.62832C2.6618 5.15886 3.03525 4.7789 3.50146 4.7789ZM8.94069 15.7035C8.94069 12.8773 11.2054 10.5885 14.0004 10.5885C16.7955 10.5885 19.0602 12.8773 19.0602 15.7035C19.0602 18.5288 16.7955 20.8185 14.0004 20.8185C11.2054 20.8185 8.94069 18.5288 8.94069 15.7035Z" fill="#C4C4C4"/>
</svg>
