<svg width="28" height="28" viewBox="0 0 28 28" fill="none" xmlns="http://www.w3.org/2000/svg">
<path fill-rule="evenodd" clip-rule="evenodd" d="M23.6041 20.9886C22.2966 20.2386 21.0356 19.8696 20.0462 19.6466C20.0482 19.6456 20.0502 19.6456 20.0522 19.6446C19.9533 19.6226 19.8644 19.6046 19.7705 19.5856C19.7089 19.5726 19.6474 19.5586 19.5878 19.5476C19.0214 19.4316 18.5761 19.3586 18.3328 19.2796C17.6937 19.0686 17.0062 18.8456 17.0062 17.9456C17.0062 17.0467 16.994 16.9287 17.2121 16.8087C17.6271 16.5767 17.8724 16.2187 17.9269 15.9407C18.0279 15.4217 18.0804 13.9677 18.2117 13.7827C18.3429 13.5938 18.5782 13.7547 18.6589 13.3288C18.7367 12.9028 18.7367 12.5288 18.8144 12.3698C18.8932 12.2098 19.1678 11.1778 18.9982 10.8238C18.8467 10.5078 18.5721 10.6728 18.5529 10.4768C18.5196 10.1578 19.1062 7.47991 18.7094 6.34594C18.4863 5.70296 18.0148 5.10697 18.0107 5.09297C17.722 4.052 15.73 3.49402 15.2312 3.28002C14.7325 3.06703 13.2655 2.77404 12.269 3.28002C11.2725 3.78701 11.0049 4.46899 10.5839 4.73498C10.1649 5.00298 9.71763 5.16597 9.3057 6.34594C8.90892 7.47991 9.49551 10.1578 9.4632 10.4768C9.44402 10.6728 9.16839 10.5078 9.01897 10.8238C8.84733 11.1778 9.12296 12.2098 9.2007 12.3698C9.27945 12.5288 9.27945 12.9028 9.35921 13.3288C9.43695 13.7547 9.6722 13.5938 9.80446 13.7827C9.93571 13.9677 9.98821 15.4217 10.0892 15.9407C10.1427 16.2187 10.389 16.5767 10.804 16.8087C11.0211 16.9287 11.01 17.0467 11.01 17.9456C11.01 18.8456 10.3234 19.0686 9.68229 19.2796C8.99575 19.5056 6.75436 19.6346 4.39587 20.9886C2.36853 22.1515 2.5018 25.4994 2.5018 25.4994H11.4582H13.5128H25.4982C25.4982 25.4994 25.6324 22.1515 23.6041 20.9886Z" fill="#C4C4C4"/>
</svg>
