<svg width="28" height="28" viewBox="0 0 28 28" fill="none" xmlns="http://www.w3.org/2000/svg">
<path fill-rule="evenodd" clip-rule="evenodd" d="M24.9194 23.6218L19.2797 17.9822C20.7668 16.2608 21.6675 14.0101 21.6675 11.5472C21.6675 6.13634 17.3207 1.75 11.9587 1.75C6.59675 1.75 2.25 6.13634 2.25 11.5472C2.25 16.958 6.59675 21.3443 11.9587 21.3443C13.9852 21.3443 15.8667 20.7178 17.4233 19.6463L23.1591 25.3821C23.6452 25.8682 24.4333 25.8682 24.9194 25.3821C25.4055 24.896 25.4055 24.1079 24.9194 23.6218ZM19.178 11.5472C19.178 15.5706 15.9458 18.8322 11.9587 18.8322C7.97161 18.8322 4.73942 15.5706 4.73942 11.5472C4.73942 7.52373 7.97161 4.26209 11.9587 4.26209C15.9458 4.26209 19.178 7.52373 19.178 11.5472Z" fill="#C4C4C4"/>
</svg>
